<svg clip-rule="evenodd" fill-rule="evenodd" stroke-linejoin="round" stroke-miterlimit="2" viewBox="0 0 133 133" xmlns="http://www.w3.org/2000/svg"><g transform="matrix(1.01615 0 0 1.01615 .732482 .64602)"><circle cx="64.254" cy="64.339" fill="transparent" r="63.006"/><path d="m64.661 1.334.406.004.406.006.406.009.404.012.404.014.404.016.403.02.402.021.401.024.401.027.4.029.4.032.398.034.398.037.398.039.396.042.396.044.395.046.395.049.393.051.393.054.392.056.391.059.391.061.39.063.388.066.389.068.387.071.386.073.386.075.385.077.384.08.383.083.382.084.381.087.381.089.379.092.379.093.378.096.377.099.376.1.375.103.374.105.373.108.372.109.372.112.37.114.369.116.369.119.367.12.366.123.366.125.364.127.363.13.363.131.361.134.36.136.36.138.358.14.357.142.356.144.355.147.354.148.352.151.352.152.35.155.35.157.348.159.347.161.346.163.345.165.344.167.342.169.342.171.34.173.339.175.338.177.336.179.336.181.334.183.333.184.331.187.331.189.329.191.328.192.327.195.325.196.324.199.323.2.322.202.32.204.319.206.317.208.317.21.315.211.313.213.312.216.311.216.31.219.308.221.307.222.305.224.304.226.303.228.301.23.3.231.298.233.297.235.295.236.294.239.293.24.291.241.289.244.288.245.287.247.285.248.284.25.282.252.28.253.279.256.278.256.276.259.274.26.273.262.271.263.27.265.268.266.266.268.265.27.264.271.261.273.26.274.259.276.256.278.256.279.253.28.252.283.25.283.249.285.246.287.245.288.244.289.242.292.24.292.238.294.236.295.235.297.233.299.231.299.23.301.228.303.226.304.224.305.222.307.221.308.219.31.217.311.215.312.213.314.212.314.209.317.208.317.206.319.204.32.202.322.2.323.199.324.196.325.195.327.192.328.191.329.189.331.187.331.185.333.182.334.181.336.179.336.177.338.175.339.174.34.171.342.169.342.167.344.165.345.163.346.16.347.159.348.157.35.155.35.152.352.151.353.149.353.146.355.144.356.142.357.14.359.138.359.136.36.134.361.131.363.13.363.127.364.125.366.123.366.12.367.119.369.116.369.114.37.112.372.109.372.108.373.105.374.103.375.1.376.099.377.096.378.093.379.092.379.089.381.087.381.084.382.083.383.08.384.077.385.075.386.073.386.071.388.068.388.066.389.063.389.061.391.059.391.056.392.054.393.051.394.049.394.046.395.045.396.041.396.039.398.037.398.034.398.032.4.029.4.027.401.024.401.022.402.019.403.016.404.015.404.011.404.009.406.006.406.004.406.002.408-.002.407-.004.406-.006.406-.009.406-.011.404-.015.405-.016.403-.019.403-.022.402-.024.401-.027.401-.029.4-.032.4-.034.398-.037.398-.039.398-.041.396-.045.396-.046.395-.049.395-.051.393-.054.393-.056.392-.059.391-.061.391-.063.39-.066.389-.068.388-.071.387-.073.386-.075.386-.077.385-.08.384-.083.383-.084.382-.087.381-.089.381-.092.38-.093.378-.096.378-.099.377-.1.376-.103.375-.105.374-.108.373-.109.372-.112.372-.114.37-.116.369-.119.369-.12.367-.123.366-.125.366-.127.364-.13.364-.131.362-.134.361-.136.36-.138.36-.14.358-.142.357-.144.356-.146.355-.149.354-.151.352-.152.352-.155.351-.157.349-.159.348-.16.347-.163.346-.165.345-.167.344-.169.342-.171.342-.174.34-.175.339-.177.338-.179.336-.181.336-.182.334-.185.333-.187.332-.189.33-.191.329-.192.328-.195.327-.196.325-.199.324-.2.323-.202.322-.204.32-.206.319-.208.317-.209.317-.212.315-.213.313-.215.313-.217.31-.219.31-.221.308-.222.307-.224.305-.226.304-.228.303-.23.301-.231.3-.233.298-.235.297-.236.295-.238.294-.24.293-.242.291-.244.289-.245.288-.246.287-.249.285-.25.284-.252.282-.253.28-.256.279-.256.278-.259.276-.26.274-.261.273-.264.271-.265.27-.266.268-.268.266-.27.265-.271.264-.273.261-.274.26-.276.259-.278.257-.279.255-.28.253-.282.252-.284.25-.285.249-.287.246-.288.246-.289.243-.291.242-.293.24-.294.238-.295.236-.297.235-.298.233-.3.232-.301.229-.303.228-.304.226-.305.224-.307.222-.308.221-.31.219-.311.217-.312.215-.313.213-.315.212-.317.209-.317.208-.319.206-.32.204-.322.202-.323.2-.324.199-.325.196-.327.195-.328.192-.329.191-.331.189-.331.187-.333.185-.334.183-.336.181-.336.179-.338.177-.339.175-.34.173-.342.171-.342.169-.344.167-.345.165-.346.163-.347.161-.348.158-.35.157-.35.155-.352.153-.352.15-.354.149-.355.146-.356.144-.357.142-.358.141-.36.137-.36.136-.361.134-.363.131-.363.13-.364.127-.366.125-.366.123-.367.12-.369.119-.369.116-.37.114-.372.112-.372.11-.373.107-.374.105-.375.103-.376.1-.377.099-.378.096-.379.094-.379.091-.381.089-.381.087-.382.085-.383.082-.384.08-.385.077-.386.076-.386.072-.387.071-.389.068-.388.066-.39.063-.391.061-.391.059-.392.056-.393.054-.393.051-.395.049-.395.047-.396.044-.396.041-.398.039-.398.037-.398.034-.4.032-.4.029-.401.027-.401.024-.402.022-.403.019-.404.016-.404.015-.404.011-.406.009-.406.007-.406.003-.407.002-.408-.002-.406-.003-.406-.007-.406-.009-.404-.011-.404-.015-.404-.016-.403-.019-.402-.022-.401-.024-.401-.027-.4-.029-.4-.032-.398-.034-.398-.037-.398-.039-.396-.041-.396-.044-.395-.047-.395-.049-.393-.051-.393-.054-.392-.056-.391-.059-.391-.061-.39-.063-.388-.066-.389-.068-.387-.071-.386-.072-.386-.076-.385-.077-.384-.08-.383-.082-.382-.085-.381-.087-.381-.089-.379-.091-.379-.094-.378-.096-.377-.099-.376-.1-.375-.103-.374-.105-.373-.107-.372-.11-.372-.112-.37-.114-.369-.116-.369-.119-.367-.12-.366-.123-.366-.125-.364-.127-.363-.13-.363-.131-.361-.134-.36-.136-.36-.137-.358-.141-.357-.142-.356-.144-.355-.146-.353-.149-.353-.15-.352-.153-.35-.155-.35-.157-.348-.158-.347-.161-.346-.163-.345-.165-.344-.167-.342-.169-.342-.171-.34-.173-.339-.175-.338-.177-.336-.179-.336-.181-.334-.183-.333-.185-.331-.187-.331-.189-.329-.191-.328-.192-.327-.195-.325-.196-.324-.199-.323-.2-.322-.202-.32-.204-.319-.206-.317-.208-.317-.209-.315-.212-.313-.213-.312-.215-.311-.217-.31-.219-.308-.221-.307-.222-.305-.224-.304-.226-.303-.228-.301-.229-.3-.232-.298-.233-.297-.235-.295-.236-.294-.238-.293-.24-.291-.242-.289-.243-.288-.246-.287-.246-.285-.249-.284-.25-.282-.252-.28-.253-.279-.255-.278-.257-.276-.259-.274-.26-.273-.261-.271-.264-.27-.265-.268-.266-.266-.268-.265-.27-.264-.271-.261-.273-.26-.274-.259-.276-.256-.278-.256-.279-.253-.28-.252-.282-.25-.284-.249-.285-.246-.287-.245-.288-.244-.289-.242-.291-.24-.293-.238-.294-.236-.295-.235-.297-.233-.298-.231-.3-.23-.301-.228-.303-.226-.304-.224-.305-.222-.307-.221-.308-.219-.31-.217-.31-.215-.313-.213-.313-.211-.315-.21-.317-.208-.317-.206-.319-.204-.32-.202-.322-.2-.323-.199-.324-.196-.325-.195-.327-.192-.328-.191-.329-.189-.33-.187-.332-.185-.333-.182-.334-.181-.336-.179-.336-.177-.338-.175-.339-.174-.34-.171-.342-.169-.342-.167-.344-.165-.345-.162-.346-.161-.347-.159-.348-.157-.349-.155-.351-.152-.352-.151-.352-.149-.354-.146-.355-.144-.356-.142-.357-.14-.358-.138-.36-.136-.36-.134-.361-.131-.362-.13-.364-.127-.364-.125-.366-.123-.366-.12-.367-.119-.369-.116-.369-.114-.37-.112-.372-.109-.372-.108-.373-.105-.374-.103-.375-.1-.376-.099-.377-.096-.378-.093-.378-.092-.38-.089-.381-.087-.381-.084-.382-.083-.383-.08-.384-.077-.385-.075-.386-.073-.386-.071-.387-.068-.388-.066-.389-.063-.39-.061-.391-.059-.391-.056-.392-.054-.393-.051-.393-.049-.395-.046-.395-.044-.396-.042-.396-.039-.398-.037-.398-.034-.398-.032-.4-.029-.4-.027-.401-.024-.401-.022-.402-.019-.403-.016-.403-.014-.405-.012-.404-.009-.406-.006-.406-.004-.406-.002-.407.002-.408.004-.406.006-.406.009-.406.012-.404.014-.404.016-.404.019-.403.022-.402.024-.401.027-.401.029-.4.032-.4.034-.398.037-.398.039-.398.042-.396.044-.396.046-.395.049-.394.051-.394.054-.393.056-.392.059-.391.061-.391.063-.389.066-.389.068-.388.071-.388.073-.386.075-.386.077-.385.08-.384.083-.383.084-.382.087-.381.089-.381.092-.379.093-.379.096-.378.099-.377.1-.376.103-.375.105-.374.108-.373.109-.372.112-.372.114-.37.116-.369.119-.369.12-.367.123-.366.125-.366.127-.364.13-.363.131-.363.134-.361.136-.36.138-.359.14-.359.142-.357.144-.356.146-.355.149-.353.151-.353.152-.352.155-.35.157-.35.159-.348.161-.347.162-.346.165-.345.167-.344.169-.342.171-.342.174-.34.175-.339.177-.338.179-.336.181-.336.182-.334.185-.333.187-.331.189-.331.191-.329.192-.328.195-.327.196-.325.199-.324.2-.323.202-.322.204-.32.206-.319.208-.317.21-.317.211-.314.213-.314.215-.312.217-.311.219-.31.221-.308.222-.307.224-.305.226-.304.228-.303.23-.301.231-.299.233-.299.235-.297.236-.295.238-.294.24-.292.242-.292.244-.289.245-.288.246-.287.249-.285.25-.283.252-.283.253-.28.256-.279.256-.278.259-.276.26-.274.261-.273.264-.271.265-.27.266-.268.268-.266.27-.265.271-.263.273-.262.274-.26.276-.259.278-.256.279-.256.28-.253.282-.252.284-.25.285-.248.287-.247.288-.245.289-.244.291-.241.293-.24.294-.239.295-.236.297-.235.298-.233.3-.231.301-.23.303-.228.304-.226.305-.224.307-.222.308-.221.31-.219.311-.216.312-.216.313-.213.315-.211.317-.21.317-.208.319-.206.32-.204.322-.202.323-.2.324-.199.325-.196.327-.195.328-.192.329-.191.331-.189.331-.187.333-.184.334-.183.336-.181.336-.179.338-.177.339-.175.34-.173.342-.171.342-.169.344-.167.345-.165.346-.163.347-.161.348-.159.35-.157.35-.155.352-.152.353-.151.353-.148.355-.147.356-.144.357-.142.358-.14.36-.138.36-.136.361-.134.363-.131.363-.13.364-.127.366-.125.366-.123.367-.12.369-.119.369-.116.37-.114.372-.112.372-.109.373-.108.374-.105.375-.103.376-.1.377-.099.378-.096.379-.093.379-.092.381-.089.381-.087.382-.084.383-.083.384-.08.385-.077.386-.075.386-.073.387-.071.389-.068.388-.066.39-.063.391-.061.391-.059.392-.056.393-.054.393-.051.395-.049.395-.046.396-.044.396-.042.398-.039.398-.037.398-.034.4-.032.4-.029.401-.027.401-.024.402-.021.403-.02.404-.016.404-.014.404-.012.406-.009.406-.006.406-.004.408-.002zm-.79 3.936-.381.004-.381.006-.381.008-.38.011-.379.013-.378.016-.378.018-.377.02-.377.023-.376.025-.375.027-.375.03-.374.032-.373.035-.372.036-.372.039-.371.042-.371.043-.37.046-.369.048-.368.051-.367.052-.367.055-.366.057-.365.06-.365.061-.364.064-.363.066-.362.069-.361.07-.361.073-.36.075-.359.077-.358.079-.357.081-.357.084-.355.086-.355.088-.354.09-.353.092-.353.094-.351.096-.351.099-.349.1-.349.103-.348.105-.347.107-.346.109-.345.11-.344.114-.344.115-.342.117-.341.119-.341.121-.339.123-.339.126-.337.127-.337.129-.336.131-.334.134-.334.135-.333.137-.331.139-.331.141-.329.143-.329.145-.327.147-.327.149-.325.151-.324.153-.323.154-.323.157-.321.158-.32.161-.319.162-.317.164-.317.166-.315.168-.315.169-.313.172-.312.173-.311.175-.31.177-.309.179-.307.181-.306.182-.305.184-.304.186-.303.188-.301.189-.301.192-.299.193-.298.195-.296.196-.295.199-.294.2-.293.201-.292.204-.29.205-.289.207-.288.208-.286.211-.285.211-.284.214-.282.215-.281.217-.28.219-.279.22-.277.222-.275.223-.275.225-.273.227-.271.228-.271.23-.268.232-.268.233-.266.234-.264.237-.263.237-.262.24-.26.241-.259.242-.258.244-.255.245-.255.247-.253.249-.251.25-.25.251-.249.253-.247.255-.245.255-.244.258-.243.259-.24.26-.24.262-.237.263-.237.264-.234.266-.233.268-.232.269-.23.27-.228.271-.227.273-.225.275-.223.275-.222.277-.22.279-.219.28-.217.281-.215.282-.214.284-.212.285-.21.286-.208.288-.207.289-.205.29-.204.292-.202.293-.2.294-.198.295-.196.297-.195.297-.193.299-.192.301-.189.301-.188.303-.186.304-.184.305-.183.306-.18.308-.179.308-.177.31-.175.311-.173.312-.172.313-.169.315-.168.315-.166.317-.164.318-.162.318-.161.32-.158.321-.157.323-.154.323-.153.324-.151.325-.149.327-.147.327-.145.329-.143.329-.141.331-.139.332-.137.332-.136.334-.133.334-.131.336-.129.337-.127.337-.126.339-.123.339-.121.341-.119.341-.117.342-.116.344-.113.344-.111.345-.108.346-.107.347-.105.348-.103.349-.1.35-.099.35-.096.351-.094.353-.093.353-.09.354-.087.355-.086.355-.084.357-.081.357-.079.359-.077.359-.075.359-.073.361-.07.361-.069.363-.066.362-.064.364-.061.365-.06.365-.057.366-.055.367-.053.367-.05.369-.048.369-.046.369-.044.371-.041.371-.039.372-.037.372-.034.373-.032.374-.03.375-.027.375-.025.376-.023.377-.02.377-.018.378-.016.378-.013.379-.011.38-.008.381-.006.381-.004.381-.001.383.001.382.004.381.006.382.008.38.011.38.013.379.016.378.018.378.02.378.023.376.025.376.027.375.03.375.032.374.034.373.037.373.039.371.041.372.044.37.046.37.048.369.05.368.053.367.055.367.057.366.06.365.061.365.064.364.066.363.069.362.07.361.073.361.075.36.077.359.079.358.081.357.084.357.086.355.087.355.09.354.093.353.094.353.096.351.099.351.1.349.103.349.105.348.107.347.108.346.111.345.113.344.116.344.117.342.119.341.121.341.123.339.126.339.127.338.129.336.131.336.133.334.136.334.137.333.139.331.141.331.143.329.145.329.147.327.149.327.151.325.153.324.154.324.157.322.158.321.161.32.162.319.164.317.166.317.167.316.17.314.172.313.173.312.175.311.177.31.179.309.18.307.183.306.184.305.186.304.188.303.189.302.192.3.193.299.195.298.196.296.198.296.2.294.202.292.204.292.205.29.207.289.208.288.21.286.212.285.214.284.215.282.217.282.219.279.22.279.222.277.223.276.225.274.227.273.228.271.23.271.232.268.233.268.234.266.236.264.238.264.24.261.24.261.243.258.244.258.245.256.247.254.249.253.25.251.251.25.253.249.255.247.255.245.258.244.259.243.26.24.262.24.263.238.264.236.266.234.268.233.269.232.27.23.271.228.273.227.275.225.275.223.277.222.279.22.28.219.281.217.282.215.284.214.285.212.286.21.288.208.289.207.29.205.292.204.293.202.294.2.295.198.296.197.298.194.299.193.301.192.301.189.303.188.304.186.305.184.306.183.307.18.309.179.31.177.311.175.312.173.313.172.315.17.315.167.317.166.317.164.319.163.32.16.321.158.322.157.324.154.324.153.325.151.327.149.327.147.329.145.329.143.331.141.331.139.333.137.334.136.334.133.336.131.337.129.337.128.339.125.339.123.341.121.341.119.342.118.344.115.344.113.345.111.346.109.347.106.348.105.349.103.349.1.351.099.351.096.353.095.353.092.354.09.355.088.355.085.357.084.357.081.358.079.359.077.36.075.361.073.361.071.362.068.363.066.364.064.365.061.365.06.366.057.367.055.367.053.369.05.369.048.369.046.371.044.371.041.372.039.372.037.373.034.374.032.375.03.375.027.376.025.377.023.377.02.378.018.378.016.379.013.38.011.381.008.381.006.381.004.383.001.382-.001.381-.004.381-.006.381-.008.38-.011.379-.013.378-.016.378-.018.377-.02.377-.023.376-.025.375-.027.375-.03.374-.032.373-.034.372-.037.372-.039.371-.041.371-.044.37-.046.369-.048.368-.05.367-.053.367-.055.366-.057.365-.06.365-.061.364-.064.363-.066.362-.068.361-.071.361-.073.36-.075.359-.077.358-.079.357-.081.357-.084.355-.085.355-.088.354-.09.353-.092.353-.095.351-.096.351-.099.349-.1.349-.103.348-.105.347-.106.346-.109.345-.111.344-.113.344-.115.342-.118.341-.119.341-.121.339-.123.339-.125.338-.128.336-.129.336-.131.334-.133.334-.136.333-.137.331-.139.331-.141.329-.143.329-.145.327-.147.327-.149.325-.151.324-.153.324-.154.322-.157.321-.158.32-.16.319-.163.317-.164.317-.166.315-.167.315-.17.313-.172.312-.173.311-.175.31-.177.309-.179.307-.18.306-.183.305-.184.304-.186.303-.188.301-.189.301-.192.299-.193.298-.194.296-.197.295-.198.294-.2.293-.202.292-.204.29-.205.289-.207.288-.208.286-.21.285-.212.284-.214.282-.215.281-.217.28-.219.279-.22.277-.222.275-.223.275-.225.273-.227.271-.228.271-.23.268-.232.268-.233.266-.234.264-.236.263-.238.262-.24.26-.24.259-.243.258-.244.256-.245.254-.247.253-.249.251-.25.25-.251.249-.253.247-.254.245-.256.244-.258.243-.259.24-.26.24-.261.238-.264.236-.264.234-.266.233-.268.232-.268.23-.271.228-.271.227-.273.225-.274.223-.276.222-.277.22-.279.219-.28.217-.281.215-.282.214-.284.212-.285.21-.286.208-.288.207-.289.205-.29.204-.292.202-.292.2-.294.198-.296.196-.296.195-.298.193-.299.192-.3.189-.302.188-.303.186-.304.184-.305.183-.306.18-.307.179-.309.177-.31.175-.311.173-.312.172-.313.17-.314.167-.316.166-.317.164-.317.163-.319.16-.32.158-.321.157-.322.154-.324.153-.324.151-.325.149-.327.147-.327.145-.329.143-.329.141-.331.139-.331.137-.333.136-.334.133-.334.131-.336.129-.336.128-.338.125-.339.123-.339.121-.341.119-.341.117-.342.116-.344.113-.344.111-.345.109-.346.106-.347.105-.348.103-.349.1-.349.099-.351.096-.351.094-.353.093-.353.09-.354.087-.355.086-.355.084-.357.081-.357.079-.358.077-.359.075-.36.073-.361.07-.361.069-.362.066-.363.064-.364.061-.364.06-.366.057-.366.055-.367.053-.367.05-.368.048-.369.046-.37.044-.37.041-.372.039-.371.037-.373.034-.373.032-.374.03-.375.027-.375.025-.376.023-.377.02-.377.018-.378.016-.378.013-.379.011-.38.008-.38.006-.381.004-.382.001-.382-.001-.383-.004-.381-.006-.381-.008-.381-.011-.379-.013-.38-.016-.378-.018-.378-.02-.377-.023-.377-.025-.376-.027-.375-.03-.375-.032-.374-.034-.373-.037-.372-.039-.372-.041-.371-.044-.371-.046-.369-.048-.369-.05-.369-.053-.367-.055-.367-.057-.366-.06-.365-.061-.365-.064-.364-.066-.362-.069-.363-.07-.361-.073-.361-.075-.359-.077-.359-.079-.359-.081-.357-.084-.357-.086-.355-.087-.355-.09-.354-.093-.353-.094-.352-.096-.352-.099-.35-.1-.35-.103-.349-.105-.348-.106-.347-.109-.346-.111-.345-.113-.344-.116-.344-.117-.342-.119-.341-.121-.341-.123-.339-.125-.339-.128-.337-.129-.337-.131-.336-.133-.334-.136-.334-.137-.332-.139-.332-.141-.331-.143-.329-.145-.329-.147-.327-.149-.327-.151-.325-.153-.324-.154-.323-.157-.323-.158-.321-.16-.32-.163-.318-.164-.318-.166-.317-.167-.315-.17-.315-.172-.313-.173-.312-.175-.311-.177-.31-.179-.308-.18-.308-.183-.306-.184-.305-.186-.304-.188-.303-.189-.301-.192-.301-.193-.299-.195-.297-.196-.297-.198-.295-.2-.294-.202-.293-.204-.292-.205-.29-.207-.289-.208-.288-.21-.286-.212-.285-.214-.284-.215-.282-.217-.281-.219-.28-.22-.279-.222-.277-.223-.275-.225-.275-.227-.273-.228-.271-.23-.27-.232-.269-.233-.268-.234-.266-.236-.264-.238-.263-.24-.262-.24-.26-.243-.259-.244-.258-.245-.255-.247-.255-.249-.253-.25-.251-.251-.25-.253-.249-.254-.247-.256-.245-.258-.244-.259-.242-.26-.241-.262-.24-.263-.237-.264-.237-.266-.234-.268-.233-.268-.232-.271-.23-.271-.228-.273-.227-.275-.225-.275-.223-.277-.222-.279-.22-.28-.219-.281-.217-.282-.215-.284-.214-.285-.211-.286-.211-.288-.208-.289-.207-.29-.205-.292-.204-.293-.201-.294-.2-.295-.199-.296-.196-.298-.195-.299-.193-.301-.192-.301-.189-.303-.188-.304-.186-.305-.184-.306-.182-.307-.181-.309-.179-.31-.177-.311-.175-.312-.173-.313-.172-.315-.169-.315-.168-.317-.166-.317-.164-.319-.162-.32-.161-.321-.158-.322-.157-.324-.154-.324-.153-.325-.151-.327-.149-.327-.147-.329-.145-.329-.143-.331-.141-.331-.139-.333-.137-.334-.135-.334-.134-.336-.131-.336-.129-.338-.127-.339-.126-.339-.123-.341-.121-.341-.119-.342-.117-.344-.115-.344-.114-.345-.11-.346-.109-.347-.107-.348-.105-.349-.103-.349-.1-.351-.099-.351-.096-.353-.094-.353-.092-.354-.09-.355-.088-.355-.086-.357-.084-.357-.081-.358-.079-.359-.077-.36-.075-.361-.073-.361-.07-.362-.069-.363-.066-.364-.064-.365-.061-.365-.06-.366-.057-.367-.055-.367-.052-.368-.051-.369-.048-.37-.046-.371-.043-.371-.042-.372-.039-.372-.036-.373-.035-.374-.032-.375-.03-.375-.027-.376-.025-.377-.023-.377-.02-.378-.018-.378-.016-.379-.013-.38-.011-.381-.008-.381-.006-.381-.004-.382-.001z" fill="transparent"/></g><path d="m176.222 339.962c-2.034-.244-4.004-1.145-5.564-2.705l-66.333-66.334c-3.697-3.696-3.697-9.699 0-13.395l13.395-13.396c3.697-3.696 9.699-3.696 13.395 0l46.251 46.251 46.248-46.248c3.696-3.697 9.699-3.697 13.395 0l13.396 13.395c3.696 3.697 3.696 9.699 0 13.396l-66.334 66.333c-2.141 2.141-5.056 3.042-7.849 2.703zm0-86.518c-2.034-.243-4.004-1.145-5.564-2.705l-66.333-66.333c-3.697-3.697-3.697-9.699 0-13.396l13.395-13.395c3.697-3.696 9.699-3.696 13.395 0l46.251 46.25 46.248-46.248c3.696-3.696 9.699-3.696 13.395 0l13.396 13.396c3.696 3.696 3.696 9.699 0 13.395l-66.334 66.334c-2.141 2.141-5.056 3.042-7.849 2.702z" fill="#888" transform="matrix(0 -.445804 .445804 0 -42.2847 145.094)"/></svg>