<svg clip-rule="evenodd" fill-rule="evenodd" stroke-linejoin="round" stroke-miterlimit="2" viewBox="0 0 512 512" xmlns="http://www.w3.org/2000/svg"><path d="m314.269 399.855h-273.809c-22.33 0-40.46-18.129-40.46-40.459v-273.81c0-22.33 18.129-40.459 40.46-40.46h38.285c-.168-.815-.257-1.659-.257-2.524v-30.164c0-6.865 5.573-12.438 12.438-12.438h24.877c6.865 0 12.438 5.573 12.438 12.438v30.164c0 .865-.089 1.709-.257 2.524h99.555c-.168-.815-.257-1.659-.257-2.524v-30.164c0-6.865 5.574-12.438 12.439-12.438h24.876c6.865 0 12.438 5.573 12.438 12.438v30.164c0 .863-.088 1.706-.257 2.524h37.491c22.333.003 40.46 18.132 40.46 40.46v273.81c0 22.328-18.127 40.457-40.46 40.459z" fill="#0785f2" transform="matrix(1.28 0 0 1.28 28.9733 .092483)"/><path d="m68.89778 160.944963h374.20544v308.67456h-374.20544z" fill="#014873" stroke-width="1.28"/><path d="m176.222 339.962c-2.034-.244-4.004-1.145-5.564-2.705l-66.333-66.334c-3.697-3.696-3.697-9.699 0-13.395l13.395-13.396c3.697-3.696 9.699-3.696 13.395 0l46.251 46.251 46.248-46.248c3.696-3.697 9.699-3.697 13.395 0l13.396 13.395c3.696 3.697 3.696 9.699 0 13.396l-66.334 66.333c-2.141 2.141-5.056 3.042-7.849 2.703zm0-86.518c-2.034-.243-4.004-1.145-5.564-2.705l-66.333-66.333c-3.697-3.697-3.697-9.699 0-13.396l13.395-13.395c3.697-3.696 9.699-3.696 13.395 0l46.251 46.25 46.248-46.248c3.696-3.696 9.699-3.696 13.395 0l13.396 13.396c3.696 3.696 3.696 9.699 0 13.395l-66.334 66.334c-2.141 2.141-5.056 3.042-7.849 2.702z" fill="#f2af2f" transform="matrix(1.28 0 0 1.28 28.9733 .092483)"/></svg>