<svg clip-rule="evenodd" fill-rule="evenodd" stroke-linejoin="round" stroke-miterlimit="2" viewBox="0 0 1132 400" xmlns="http://www.w3.org/2000/svg"><path d="m314.269 399.855h-273.809c-22.33 0-40.46-18.129-40.46-40.459v-273.81c0-22.33 18.129-40.459 40.46-40.46h38.285c-.168-.815-.257-1.659-.257-2.524v-30.164c0-6.865 5.573-12.438 12.438-12.438h24.877c6.865 0 12.438 5.573 12.438 12.438v30.164c0 .865-.089 1.709-.257 2.524h99.555c-.168-.815-.257-1.659-.257-2.524v-30.164c0-6.865 5.574-12.438 12.439-12.438h24.876c6.865 0 12.438 5.573 12.438 12.438v30.164c0 .863-.088 1.706-.257 2.524h37.491c22.333.003 40.46 18.132 40.46 40.46v273.81c0 22.328-18.127 40.457-40.46 40.459z" fill="#0785f2"/><path d="m31.191 125.666h292.348v241.152h-292.348z" fill="#014873"/><path d="m176.222 339.962c-2.034-.244-4.004-1.145-5.564-2.705l-66.333-66.334c-3.697-3.696-3.697-9.699 0-13.395l13.395-13.396c3.697-3.696 9.699-3.696 13.395 0l46.251 46.251 46.248-46.248c3.696-3.697 9.699-3.697 13.395 0l13.396 13.395c3.696 3.697 3.696 9.699 0 13.396l-66.334 66.333c-2.141 2.141-5.056 3.042-7.849 2.703zm0-86.518c-2.034-.243-4.004-1.145-5.564-2.705l-66.333-66.333c-3.697-3.697-3.697-9.699 0-13.396l13.395-13.395c3.697-3.696 9.699-3.696 13.395 0l46.251 46.25 46.248-46.248c3.696-3.696 9.699-3.696 13.395 0l13.396 13.396c3.696 3.696 3.696 9.699 0 13.395l-66.334 66.334c-2.141 2.141-5.056 3.042-7.849 2.702z" fill="#f2af2f"/><g fill-rule="nonzero"><path d="m399.32395073903 45.97650330621h80.01866313v272.063454642h-80.01866313z" fill="#0785f2" stroke-width="381.041253"/><path d="m.846-.234c-.016.09-.048.129-.115.178-.067.049-.157.074-.27.074-.084 0-.157-.015-.218-.044s-.109-.072-.142-.129c-.034-.057-.051-.124-.051-.202 0-.074.016-.139.049-.196s.08-.101.142-.132c.061-.031.135-.047.221-.047.103 0 .186.021.248.063.061.042.102.105.123.19l-.21.024c-.013-.038-.032-.066-.057-.083-.026-.017-.061-.025-.105-.025-.061 0-.108.018-.142.054-.034.037-.051.087-.051.152s.017.116.052.152c.034.036.082.054.145.054.049 0 .087-.009.115-.028.027-.018.028-.017.054-.055z" fill="#0785f2" transform="matrix(381.041253 0 0 381.041253 496.87241671329 318.03995794821)"/><path d="m.543-.499c-.011-.028-.029-.048-.052-.061-.023-.012-.055-.018-.096-.018-.046 0-.081.005-.104.015-.024.01-.036.025-.036.044 0 .018.006.031.019.04s.037.016.074.022l.154.025c.093.015.16.039.201.074s.061.084.061.147c0 .075-.03.132-.091.171s-.15.058-.269.058-.209-.021-.271-.063c-.063-.042-.098-.104-.106-.189l.21.001c.007.034.023.057.05.073s.066.024.117.024c.048 0 .085-.006.111-.018s.039-.029.039-.051c0-.017-.007-.03-.021-.039-.015-.009-.04-.017-.075-.022l-.127-.019c-.098-.015-.17-.04-.215-.077s-.068-.087-.068-.151c0-.069.031-.122.094-.161s.149-.058.26-.058c.103 0 .182.018.239.053.056.035.09.089.103.16z" fill="#0785f2" transform="matrix(381.041253 0 0 381.041253 839.42659795403 318.03995794821)"/><path d="m.786-.232c-.013.079-.05.141-.11.184-.061.044-.139.066-.235.066-.076 0-.142-.015-.199-.045-.057-.029-.102-.072-.133-.129-.032-.056-.048-.123-.048-.2 0-.073.015-.138.045-.195s.074-.101.131-.133.124-.048.201-.048c.089 0 .162.019.219.058.057.04.095.097.116.174l-.064.01c-.021-.063-.053-.11-.096-.14-.044-.029-.102-.044-.175-.044-.061 0-.115.012-.161.037-.047.025-.083.062-.108.11-.026.048-.039.105-.039.171 0 .098.028.175.083.231.055.057.131.085.228.085.078 0 .14-.016.187-.049.047-.032.077-.08.09-.143z" fill="#0785f2" transform="matrix(81.86167101242 0 0 81.86167101242 394.38701964308 398.1878915176)"/><path d="m.709 0-.105-.217h-.409l-.105.217h-.071l.347-.714h.069l.347.714zm-.31-.644-.178.37h.356z" fill="#0785f2" transform="matrix(81.86167101242 0 0 81.86167101242 462.08717551839 398.1878915176)"/><path d="m.1 0v-.714h.066v.657h.486l-.013.057z" fill="#0785f2" transform="matrix(81.86167101242 0 0 81.86167101242 527.65841498137 398.1878915176)"/><path d="m.1 0v-.714h.553v.057h-.487v.26h.462v.057h-.462v.283h.503l-.013.057z" fill="#0785f2" transform="matrix(81.86167101242 0 0 81.86167101242 583.48759786964 398.1878915176)"/><path d="m.682 0-.516-.62v.62h-.066v-.714h.066l.516.62v-.62h.066v.714z" fill="#0785f2" transform="matrix(81.86167101242 0 0 81.86167101242 642.26380275624 398.1878915176)"/><path d="m.1 0v-.714h.292c.125 0 .222.031.29.093s.102.15.102.264c0 .115-.036.204-.107.265-.072.061-.175.092-.308.092zm.271-.057c.113 0 .198-.026.257-.077.058-.051.087-.125.087-.223s-.027-.173-.082-.224-.136-.076-.241-.076h-.226v.6z" fill="#0785f2" transform="matrix(81.86167101242 0 0 81.86167101242 711.68305479726 398.1878915176)"/><path d="m.709 0-.105-.217h-.409l-.105.217h-.071l.347-.714h.069l.347.714zm-.31-.644-.178.37h.356z" fill="#0785f2" transform="matrix(81.86167101242 0 0 81.86167101242 777.49987942676 398.1878915176)"/><path d="m.648 0-.178-.31c-.011.001-.029.002-.053.002h-.252v.308h-.065v-.714h.328c.087 0 .152.017.197.051.045.035.067.086.067.153 0 .05-.013.091-.039.122-.027.032-.065.054-.116.066l.187.322zm-.228-.365c.136 0 .204-.049.204-.146 0-.049-.016-.086-.049-.11s-.083-.036-.152-.036h-.258v.292z" fill="#0785f2" transform="matrix(81.86167101242 0 0 81.86167101242 843.07111888974 398.1878915176)"/><path d="m.082 0v-.714h.354c.107 0 .186.02.24.061.053.041.079.102.079.185s-.027.145-.081.186c-.055.041-.138.061-.25.061h-.138v.221zm.338-.378c.045 0 .078-.007.099-.022.02-.014.03-.037.03-.069 0-.031-.01-.053-.03-.067s-.052-.021-.097-.021h-.136v.179z" fill="#014873" transform="matrix(81.86167101242 0 0 81.86167101242 926.65142559567 398.1878915176)"/><path d="m.587 0-.143-.242h-.164v.242h-.198v-.714h.365c.213 0 .319.079.319.237 0 .047-.01.087-.031.118-.021.032-.052.058-.095.077l.175.282zm-.153-.394c.045 0 .078-.007.099-.02s.031-.035.031-.065c0-.029-.01-.051-.029-.064-.02-.013-.053-.019-.099-.019h-.156v.168z" fill="#014873" transform="matrix(81.86167101242 0 0 81.86167101242 990.91338913959 398.1878915176)"/><path d="m.901-.357c0 .076-.017.142-.05.198-.034.057-.083.1-.147.131-.065.031-.142.046-.231.046-.086 0-.161-.015-.224-.044s-.112-.072-.147-.129c-.035-.056-.052-.123-.052-.202 0-.076.017-.142.051-.199.033-.056.082-.099.147-.13.064-.031.141-.046.23-.046.086 0 .161.015.224.044s.112.072.147.128c.035.057.052.124.052.203zm-.218 0c0-.065-.018-.116-.054-.152s-.087-.054-.153-.054-.117.018-.153.054c-.037.036-.055.087-.055.152s.018.116.054.152.087.054.153.054.117-.018.154-.054c.036-.036.054-.087.054-.152z" fill="#014873" transform="matrix(81.86167101242 0 0 81.86167101242 1056.7302137691 398.1878915176)"/></g></svg>