<svg clip-rule="evenodd" fill-rule="evenodd" stroke-linejoin="round" stroke-miterlimit="2" viewBox="0 0 1368 400" xmlns="http://www.w3.org/2000/svg"><path d="m1049.38 972.706-148.849-150.202v251.256l148.849 150.2z" fill="#69cef9" transform="matrix(-.9038900052 0 0 .80255192472 1141.25253356 -583.191647)"/><path d="m1081.57 918.334-181.039-95.83v251.256l181.039 95.83z" fill="#2a3138" transform="matrix(.9038900052 0 0 .80255192472 -813.98187484 -583.191647)"/><path d="m1192.96 456.279 298.69 189.5-298.69 189.5-298.698-189.5z" fill="#de390b" transform="matrix(.5478358158 0 0 .40585050324 -489.908380732 -185.181499556)"/><g fill-rule="nonzero"><path d="m.054 0h.18c.011 0 .019-.008.019-.019v-.229s.009-.024.051-.024c.027 0 .042.009.054.016.009.006.017.011.026.011.012 0 .019-.009.019-.02v-.182c0-.022-.031-.036-.059-.036-.057 0-.097.021-.125.068-.006-.047-.044-.065-.091-.065h-.074c-.011 0-.019.008-.019.019v.442c0 .011.008.019.019.019z" fill="#69cef9" transform="matrix(284.24835531 0 0 284.24835531 379.45287908 213.87502334)"/><path d="m.267.01c.147 0 .255-.082.255-.25s-.108-.25-.255-.25-.255.082-.255.25.108.25.255.25zm0-.15c-.022 0-.024-.015-.024-.1s.002-.1.024-.1.024.015.024.1-.002.1-.024.1z" fill="#69cef9" transform="matrix(284.24835531 0 0 284.24835531 497.41615439 213.87502334)"/><path d="m.267.01c.147 0 .255-.082.255-.25s-.108-.25-.255-.25-.255.082-.255.25.108.25.255.25zm0-.15c-.022 0-.024-.015-.024-.1s.002-.1.024-.1.024.015.024.1-.002.1-.024.1z" fill="#69cef9" transform="matrix(284.24835531 0 0 284.24835531 652.04635577 213.87502334)"/><path d="m.519-.019v-.303c.01-.004.019-.006.027-.006.011 0 .021.004.021.025v.284c0 .011.008.019.019.019h.18c.011 0 .019-.008.019-.019v-.311c0-.085-.035-.156-.139-.156-.055 0-.108.023-.143.072-.019-.043-.057-.072-.123-.072-.062 0-.11.033-.13.056-.012-.036-.046-.05-.088-.05h-.108c-.011 0-.019.008-.019.019v.442c0 .011.008.019.019.019h.18c.011 0 .019-.008.019-.019v-.303c.01-.004.019-.006.027-.006.011 0 .021.004.021.025v.284c0 .011.008.019.019.019h.18c.011 0 .019-.008.019-.019z" fill="#69cef9" transform="matrix(284.24835531 0 0 284.24835531 803.83478777 213.87502334)"/><path d="m.226-.432c0 .026-.016.036-.064.036h-.021c-.011 0-.019.008-.019.019v.102c0 .011.008.019.019.019h.028c.041 0 .067.006.067.036 0 .033-.022.04-.049.04-.036 0-.075-.02-.115-.048-.014-.01-.025-.018-.038-.018-.014 0-.023.01-.023.032v.118c0 .027.006.038.031.056s.09.05.186.05c.118 0 .233-.056.233-.193 0-.066-.04-.124-.079-.147.039-.024.069-.076.069-.134 0-.103-.064-.187-.222-.187-.081 0-.146.025-.176.043-.022.013-.03.023-.03.05v.121c0 .022.009.032.023.032.012 0 .023-.009.036-.018.024-.017.058-.043.096-.043.02 0 .048.001.048.034z" fill="#de390b" transform="matrix(284.24835531 0 0 284.24835531 1038.3404537 213.87502334)"/><path d="m.293-.287h-.045l.142-.296c.008-.016.014-.031.014-.04 0-.01-.008-.018-.018-.018h-.19c-.012 0-.019.007-.023.017l-.149.344c-.006.014-.011.034-.011.046v.075c0 .01.007.018.018.018h.207v.122c0 .011.008.019.019.019h.19c.011 0 .019-.008.019-.019v-.122h.042c.011 0 .019-.008.019-.019v-.108c0-.011-.008-.019-.019-.019h-.042v-.082c0-.011-.008-.019-.019-.019h-.091c-.011 0-.018.008-.023.018z" fill="#de390b" transform="matrix(284.24835531 0 0 284.24835531 1173.9267497 213.87502334)"/><path d="m.325.012c.174 0 .265-.086.265-.223v-.047h-.091v.04c0 .094-.053.146-.175.146-.123 0-.177-.052-.177-.146v-.27c0-.094.054-.146.178-.146.121 0 .174.052.174.146v.04h.091v-.047c0-.137-.092-.223-.266-.223s-.265.086-.265.223v.284c0 .137.092.223.266.223z" fill="#2a3138" transform="matrix(60.77792 0 0 60.77792 385.81489848 278.0752799)"/><path d="m.578 0-.13-.307c.077-.026.12-.086.12-.172v-.041c0-.116-.078-.185-.216-.185h-.276v.705h.088v-.293h.194l.128.293zm-.414-.622h.194c.083 0 .123.035.123.102v.041c0 .068-.04.102-.124.102h-.193z" fill="#2a3138" transform="matrix(60.77792 0 0 60.77792 449.57093656 278.0752799)"/><path d="m.507-.622v-.083h-.431v.705h.431v-.084h-.343v-.221h.298v-.084h-.298v-.233z" fill="#2a3138" transform="matrix(60.77792 0 0 60.77792 511.74674872 278.0752799)"/><path d="m.507 0h.087l-.226-.705h-.121l-.225.705h.086l.062-.184h.274zm-.2-.613.11.345h-.219z" fill="#2a3138" transform="matrix(60.77792 0 0 60.77792 570.09355192 278.0752799)"/><path d="m.542-.705h-.53v.083h.221v.622h.088v-.622h.221z" fill="#2a3138" transform="matrix(60.77792 0 0 60.77792 628.3795772 278.0752799)"/><path d="m691.04161272 235.2268463h5.34845696v42.8484336h-5.34845696z" fill="#2a3138" stroke-width="60.77792"/><path d="m.487-.706-.188.593-.188-.593h-.089l.216.705h.122l.216-.705z" fill="#2a3138" transform="matrix(60.77792 0 0 60.77792 725.3203596 278.0752799)"/><path d="m.507-.622v-.083h-.431v.705h.431v-.084h-.343v-.221h.298v-.084h-.298v-.233z" fill="#2a3138" transform="matrix(60.77792 0 0 60.77792 785.97672376 278.0752799)"/><path d="m.311.013c.17 0 .258-.091.257-.209-.001-.258-.415-.171-.415-.331 0-.065.055-.107.152-.107.102 0 .161.048.161.116v.034h.087v-.031c0-.119-.082-.203-.248-.203s-.24.086-.24.193c0 .249.415.149.415.333 0 .076-.066.122-.167.122-.108 0-.176-.051-.176-.126v-.032h-.088v.027c0 .125.094.214.262.214z" fill="#2a3138" transform="matrix(60.77792 0 0 60.77792 883.22139576 278.0752799)"/><path d="m.507-.622v-.083h-.431v.705h.431v-.084h-.343v-.221h.298v-.084h-.298v-.233z" fill="#2a3138" transform="matrix(60.77792 0 0 60.77792 945.09331832 278.0752799)"/><path d="m.578 0-.13-.307c.077-.026.12-.086.12-.172v-.041c0-.116-.078-.185-.216-.185h-.276v.705h.088v-.293h.194l.128.293zm-.414-.622h.194c.083 0 .123.035.123.102v.041c0 .068-.04.102-.124.102h-.193z" fill="#2a3138" transform="matrix(60.77792 0 0 60.77792 1003.44012152 278.0752799)"/><path d="m.487-.706-.188.593-.188-.593h-.089l.216.705h.122l.216-.705z" fill="#2a3138" transform="matrix(60.77792 0 0 60.77792 1065.43359992 278.0752799)"/><path d="m1130.709086 235.2268463h5.34845696v42.8484336h-5.34845696z" fill="#2a3138" stroke-width="60.77792"/><path d="m.325.012c.174 0 .265-.086.265-.223v-.047h-.091v.04c0 .094-.053.146-.175.146-.123 0-.177-.052-.177-.146v-.27c0-.094.054-.146.178-.146.121 0 .174.052.174.146v.04h.091v-.047c0-.137-.092-.223-.266-.223s-.265.086-.265.223v.284c0 .137.092.223.266.223z" fill="#2a3138" transform="matrix(60.77792 0 0 60.77792 1164.98783288 278.0752799)"/><path d="m.507-.622v-.083h-.431v.705h.431v-.084h-.343v-.221h.298v-.084h-.298v-.233z" fill="#2a3138" transform="matrix(60.77792 0 0 60.77792 1228.74387096 278.0752799)"/><path d="m.311.013c.17 0 .258-.091.257-.209-.001-.258-.415-.171-.415-.331 0-.065.055-.107.152-.107.102 0 .161.048.161.116v.034h.087v-.031c0-.119-.082-.203-.248-.203s-.24.086-.24.193c0 .249.415.149.415.333 0 .076-.066.122-.167.122-.108 0-.176-.051-.176-.126v-.032h-.088v.027c0 .125.094.214.262.214z" fill="#2a3138" transform="matrix(60.77792 0 0 60.77792 1287.09067416 278.0752799)"/></g></svg>