<?xml version="1.0" encoding="utf-8"?>
<!-- Generator: Adobe Illustrator 24.2.3, SVG Export Plug-In . SVG Version: 6.00 Build 0)  -->
<svg version="1.1" id="Ebene_1" xmlns="http://www.w3.org/2000/svg" xmlns:xlink="http://www.w3.org/1999/xlink" x="0px" y="0px"
	 viewBox="0 0 496.41 500" style="enable-background:new 0 0 496.41 500;" xml:space="preserve">
<style type="text/css">
	.st0{fill:#5A00BE;}
</style>
<path id="Pfad_84" class="st0" d="M496.58,250.43c0,45.55,0.16,91.02,0,136.52c0.67,61.54-48.67,111.97-110.21,112.64
	c-0.85,0.01-1.68,0.01-2.53,0c-10.25,0.1-20.5-0.25-30.66,0.07c-9,0.29-13.23-3.06-13.19-12.58c0.25-56.57,0.31-113.13,0.16-169.69
	c0-8.56,3.49-12.42,12.21-12.23c12.78,0.28,25.58-0.39,38.34,0.17c6.87,1.46,13.62-2.94,15.08-9.81c0.2-0.95,0.29-1.92,0.27-2.89
	c2.11-16.44,4.51-32.84,7.22-49.2c1.42-8.58-1.98-11.76-10.25-11.71c-16.62,0.11-33.22-0.26-49.83,0
	c-9.11,0.17-13.3-3.42-13.04-12.77c0.38-13.18-0.28-26.39,0.27-39.55c0.91-21.27,8.72-30.01,29.72-32.71
	c11.41-1.27,22.89-1.87,34.37-1.79c8.5-0.07,12.53-3.26,12.4-12.07c-0.28-13.6-0.28-27.21,0-40.83c0.18-8.97-3.41-13.44-12.75-13.38
	c-20.02,0.14-40.1-0.97-60.04,0.15c-43.16,3.26-76.82,38.72-77.82,82c-0.67,16.99-0.18,34.02-0.25,51.03
	c-0.08,19.14-0.68,19.74-20.4,19.78c-11.08,0-22.15,0.25-33.22,0c-8.36-0.22-12.75,2.72-12.53,11.74c0.31,17,0.23,34.03,0.08,51.03
	c-0.06,7.5,3.26,10.82,10.78,10.74c14.05-0.15,28.12,0.26,42.14,0c9.27-0.18,13.15,4.02,13.14,13.01
	c-0.06,56.14-0.06,112.28,0,168.42c0,9.11-3.79,13.08-13.03,13.05c-48.97-0.19-98.02,1.37-146.91-0.55
	C45.96,496.82-1.26,446.7,0.08,386.52c-0.13-90.16-0.11-180.33,0.1-270.51C0.27,48.76,46.95,0.28,114.43-0.4
	c89.02-0.89,178.04-0.89,267.07,0c68.49,0.6,114.78,48.48,114.91,116.83c0.09,44.66,0.09,89.31,0,133.97L496.58,250.43z"/>
</svg>
