<?xml version="1.0" encoding="utf-8"?>
<!-- Generator: Adobe Illustrator 24.2.3, SVG Export Plug-In . SVG Version: 6.00 Build 0)  -->
<svg version="1.1" id="Ebene_1" xmlns="http://www.w3.org/2000/svg" xmlns:xlink="http://www.w3.org/1999/xlink" x="0px" y="0px"
	 viewBox="0 0 500.07 500" style="enable-background:new 0 0 500.07 500;" xml:space="preserve">
<style type="text/css">
	.st0{fill:#5A00BE;}
</style>
<g id="Gruppe_38" transform="translate(-1754.316 45.314)">
	<g id="Gruppe_11">
		<g id="Gruppe_6" transform="translate(1818.511 1013.686)">
			<path id="Pfad_5" class="st0" d="M267.61-559H104.2c-1.05-0.19-2.1-0.47-3.16-0.57c-17.24-1.5-34.66-1.86-51.68-4.72
				c-31.48-4.76-60.06-21.07-80.19-45.73c-19.78-25.48-30.87-56.63-31.65-88.88c-0.66-9.5-1.14-19-1.72-28.52v-163.4
				c0.26-1.04,0.45-2.1,0.56-3.17c0-18.59,1.77-37.13,5.28-55.38c9.12-50.31,47.14-90.45,96.88-102.29
				c22.4-5.42,45.42-7.83,68.45-7.17c54.55-0.4,109.16-0.06,163.74,0.3c18.59-0.3,37.16,1.44,55.37,5.17
				c50.32,9.09,90.5,47.08,102.38,96.82c5.45,22.54,7.87,45.7,7.19,68.87c0.39,54.44,0.25,108.88-0.41,163.31
				c-0.21,17.32-1.72,34.61-4.55,51.7c-4.73,31.49-21,60.09-45.65,80.24c-25.6,19.89-56.91,31.01-89.32,31.72
				C286.37-560.07,276.99-559.57,267.61-559 M-18.92-809.17h0.38c0,22.91-0.44,45.85,0.14,68.75c0.48,18.7,1.39,37.51,3.59,56.01
				c1.93,17.79,9.35,34.55,21.24,47.93c17.28,18.5,41.29,29.24,66.6,29.78c22.53,1.68,45.19,2.17,67.81,2.27
				c37.64,0.26,75.29,0.2,112.93-0.42c18.97-0.32,38.01-1.44,56.83-3.58c16.24-1.75,31.65-8.1,44.42-18.3
				c20.69-17.23,32.84-42.62,33.29-69.54c1.69-22.54,2.16-45.2,2.27-67.81c0.27-37.64,0.22-75.29-0.41-112.94
				c-0.32-18.97-1.44-37.99-3.58-56.83c-1.75-16.25-8.1-31.66-18.3-44.43c-17.23-20.7-42.63-32.85-69.56-33.28
				c-23.3-1.66-46.79-2.06-70.24-2.28c-36.94-0.27-73.87-0.2-110.83,0.42c-18.83,0.32-37.72,1.45-56.43,3.58
				c-16.24,1.75-31.65,8.1-44.42,18.3c-20.72,17.21-32.89,42.61-33.32,69.54c-1.7,23.37-1.85,46.86-2.38,70.31
				c-0.32,14.16-0.06,28.34-0.06,42.52"/>
		</g>
		<g id="Gruppe_7" transform="translate(1822.642 991.673)">
			<path id="Pfad_6" class="st0" d="M310.43-787.17c0.1,70.99-57.37,128.62-128.36,128.72c-0.02,0-0.05,0-0.07,0
				c-71,0.17-128.69-57.25-128.86-128.25c0-0.16,0-0.32,0-0.48c-0.03-70.98,57.49-128.54,128.47-128.56c0.06,0,0.13,0,0.19,0
				c70.99-0.04,128.58,57.47,128.62,128.46C310.43-787.24,310.43-787.2,310.43-787.17 M264.9-787.08
				c-0.04-45.85-37.11-83.06-82.97-83.27c-46.01,0.17-83.27,37.43-83.42,83.44c0.26,45.54,36.99,82.46,82.52,82.97
				c45.88,0.44,83.42-36.39,83.86-82.27C264.9-786.5,264.9-786.79,264.9-787.08"/>
		</g>
		<g id="Gruppe_8" transform="translate(1823.073 982.583)">
			<path id="Pfad_7" class="st0" d="M314.9-881.39c-16.42,0.23-29.93-12.89-30.16-29.32c0-0.22,0-0.44,0-0.66
				c-0.25-16.46,12.88-30,29.34-30.25c0.31,0,0.63,0,0.94,0c16.51-0.06,29.94,13.28,29.99,29.79c0,0.15,0,0.3,0,0.45
				c0.11,16.46-13.14,29.89-29.59,30.01C315.24-881.39,315.07-881.39,314.9-881.39"/>
		</g>
	</g>
</g>
</svg>
