<?xml version="1.0" encoding="utf-8"?>
<!-- Generator: Adobe Illustrator 24.2.3, SVG Export Plug-In . SVG Version: 6.00 Build 0)  -->
<svg version="1.1" id="Ebene_1" xmlns="http://www.w3.org/2000/svg" xmlns:xlink="http://www.w3.org/1999/xlink" x="0px" y="0px"
	 viewBox="0 0 500.07 500" style="enable-background:new 0 0 500.07 500;" xml:space="preserve">
<style type="text/css">
	.st0{fill:#5A00BE;}
</style>
<g id="Gruppe_39" transform="translate(-4725.922 81.633)">
	<path id="Pfad_83" class="st0" d="M5225.97,164.47c0.28,33.96-6.27,67.63-19.24,99.01c-11.37,27.59-27.44,52.99-47.5,75.09
		c-19.06,20.83-41.75,38.02-66.95,50.74c-21.59,11.25-44.64,19.43-68.49,24.29c-21.06,4.26-42.6,5.67-64.04,4.2
		c-35.54-2.5-70.16-12.48-101.57-29.31c-23.27-12.21-44.47-28.02-62.8-46.85c-15.84-16.46-29.2-35.15-39.64-55.47
		c-11.41-21.66-19.76-44.8-24.79-68.76c-4.03-19.13-5.65-38.68-4.82-58.21c2.21-52.28,20.52-102.61,52.4-144.1
		c20.42-27.09,46.51-49.37,76.46-65.29c20.6-11.17,42.59-19.58,65.39-25c26.81-6.33,54.5-8.02,81.88-4.99
		c48,5.5,93.48,24.38,131.26,54.48c21.7,17.42,40.03,38.67,54.08,62.69c9.26,14.74,17.02,30.37,23.16,46.65
		c5.73,15.67,9.92,31.86,12.5,48.35C5224.92,142.75,5225.82,153.6,5225.97,164.47z M4971.92,248.39c0.4,0.27,0.69,0.47,0.98,0.68
		c19.7,14.61,39.4,29.22,59.1,43.85c2.64,1.96,5.62,3.4,8.8,4.25c5.42,2.08,11.5-0.64,13.58-6.06c0.02-0.06,0.04-0.11,0.06-0.17
		c1.13-2.49,1.99-5.1,2.55-7.78c3.53-16.25,6.93-32.52,10.4-48.78c5.71-26.9,11.43-53.79,17.16-80.69
		c4.55-21.49,9.12-42.99,13.72-64.47c0.94-3.68,0.94-7.54,0-11.22c-1.33-5.74-6.79-9.53-12.62-8.77c-1.78,0.25-3.53,0.71-5.21,1.36
		c-37.18,14.31-74.35,28.65-111.51,43.02c-38.38,14.81-76.77,29.63-115.16,44.45c-6.24,2.41-12.44,4.91-18.62,7.5
		c-2.59,0.99-4.81,2.76-6.35,5.06c-2.24,2.48-2.05,6.3,0.43,8.54c0.62,0.56,1.36,0.99,2.16,1.26c2.21,0.96,4.49,1.75,6.82,2.36
		c19.88,6.1,39.77,12.16,59.67,18.18c0.67,0.16,1.36,0.07,1.96-0.26c2.56-1.5,5.04-3.13,7.56-4.71l133.91-84.28
		c1.15-0.87,2.4-1.59,3.72-2.16c1.52-0.5,3.12-0.7,4.72-0.59c1.88,0.16,2.36,1.58,1.24,3.1c-0.58,0.75-1.22,1.44-1.93,2.06
		c-24.31,22.23-48.62,44.45-72.94,66.67c-13.79,12.6-27.57,25.2-41.35,37.8c-0.44,0.36-0.75,0.85-0.88,1.41
		c-0.76,9.29-1.48,18.56-2.2,27.84c-0.76,10-1.54,20-2.35,30c-0.14,1.77-0.25,3.56-0.39,5.5c0.88-0.09,1.59-0.1,2.27-0.25
		c4.26-1.05,8.16-3.24,11.27-6.34c3.85-3.52,7.52-7.23,11.29-10.86L4971.92,248.39z"/>
</g>
</svg>
