<?xml version="1.0" encoding="utf-8"?>
<!-- Generator: Adobe Illustrator 22.1.0, SVG Export Plug-In . SVG Version: 6.00 Build 0)  -->
<svg version="1.1" id="Layer_1" xmlns="http://www.w3.org/2000/svg" xmlns:xlink="http://www.w3.org/1999/xlink" x="0px" y="0px"
	 viewBox="0 0 51 50.8" style="enable-background:new 0 0 51 50.8;" xml:space="preserve">
<style type="text/css">
	.st0{clip-path:url(#SVGID_2_);fill:#5900BE;}
	.st1{fill:#5900BE;}
</style>
<g>
	<g>
		<defs>
			<rect id="SVGID_1_" x="0.3" y="0.3" width="50.5" height="50.5"/>
		</defs>
		<clipPath id="SVGID_2_">
			<use xlink:href="#SVGID_1_"  style="overflow:visible;"/>
		</clipPath>
		<path class="st0" d="M25.5,4.8c6.7,0,7.5,0,10.2,0.1c2.5,0.1,3.8,0.5,4.7,0.9c1.2,0.5,2,1,2.9,1.9s1.4,1.7,1.9,2.9
			c0.3,0.9,0.8,2.2,0.9,4.7c0.1,2.7,0.1,3.5,0.1,10.2s0,7.5-0.1,10.2c-0.1,2.5-0.5,3.8-0.9,4.7c-0.5,1.2-1,2-1.9,2.9
			s-1.7,1.4-2.9,1.9c-0.9,0.3-2.2,0.8-4.7,0.9c-2.7,0.1-3.5,0.1-10.2,0.1s-7.5,0-10.2-0.1c-2.5-0.1-3.8-0.5-4.7-0.9
			c-1.2-0.5-2-1-2.9-1.9s-1.4-1.7-1.9-2.9c-0.3-0.9-0.7-2.3-0.8-4.7C4.9,33,4.9,32.3,4.9,25.5S4.9,18,5,15.3
			c0.1-2.5,0.5-3.8,0.9-4.7c0.5-1.2,1-2,1.9-2.9s1.7-1.4,2.9-1.9c0.9-0.3,2.2-0.8,4.7-0.9C18,4.8,18.8,4.8,25.5,4.8 M25.5,0.3
			c-6.9,0-7.7,0-10.4,0.2C12.4,0.6,10.6,0.9,9,1.5c-1.7,0.7-3.1,1.6-4.5,3S2.3,7.3,1.6,8.9c-0.6,1.6-1,3.5-1.2,6.2
			c-0.1,2.6-0.1,3.5-0.1,10.4s0,7.7,0.2,10.4C0.6,38.6,1,40.4,1.7,42c0.6,1.7,1.5,3.1,2.9,4.5C5.9,48,7.3,48.8,9,49.5
			c1.6,0.6,3.4,1.1,6.1,1.2c2.7,0.1,3.6,0.1,10.4,0.1c6.9,0,7.7,0,10.4-0.2c2.7-0.1,4.5-0.5,6.1-1.2c1.7-0.6,3.1-1.5,4.5-2.9
			s2.3-2.8,2.9-4.5c0.6-1.6,1.1-3.4,1.2-6.1c0.1-2.7,0.2-3.6,0.2-10.4c0-6.9,0-7.7-0.2-10.4c-0.1-2.7-0.5-4.5-1.2-6.1
			c-0.6-1.7-1.5-3.1-2.9-4.5S43.7,2.1,42,1.5c-1.6-0.6-3.4-1.1-6.1-1.2C33.2,0.3,32.4,0.3,25.5,0.3"/>
	</g>
</g>
<g>
	<path class="st1" d="M25.5,12.6c-7.2,0-13,5.8-13,13s5.8,13,13,13s13-5.8,13-13S32.7,12.6,25.5,12.6 M25.5,34
		c-4.6,0-8.4-3.8-8.4-8.4s3.8-8.4,8.4-8.4s8.4,3.8,8.4,8.4S30.2,34,25.5,34"/>
	<path class="st1" d="M42,12.1c0,1.7-1.4,3-3,3c-1.7,0-3-1.4-3-3c0-1.7,1.4-3,3-3C40.7,9.1,42,10.4,42,12.1"/>
</g>
</svg>
